<svg xmlns="http://www.w3.org/2000/svg" xmlns:xlink="http://www.w3.org/1999/xlink" contentStyleType="text/css" data-diagram-type="ACTIVITY" height="807px" preserveAspectRatio="none" style="width:407px;height:807px;background:#FFFFFF;" version="1.1" viewBox="0 0 407 807" width="407px" zoomAndPan="magnify"><defs/><g><ellipse cx="203.5019" cy="20" fill="#222222" rx="10" ry="10" style="stroke:#222222;stroke-width:1;"/><rect fill="#F8F8F8" height="37.706" rx="12.5" ry="12.5" style="stroke:#444444;stroke-width:0.5;" width="134.4651" x="136.2694" y="50"/><text fill="#000000" font-family="sans-serif" font-size="13" lengthAdjust="spacing" textLength="114.4651" x="146.2694" y="73.897">NetCDF anchor file</text><polygon fill="#F8F8F8" points="171.6454,107.706,235.3584,107.706,247.3584,119.706,235.3584,131.706,171.6454,131.706,159.6454,119.706,171.6454,107.706" style="stroke:#444444;stroke-width:0.5;"/><text fill="#000000" font-family="sans-serif" font-size="13" lengthAdjust="spacing" textLength="63.7131" x="171.6454" y="124.75">Command</text><rect fill="#F8F8F8" height="55.412" rx="12.5" ry="12.5" style="stroke:#444444;stroke-width:0.5;" width="145.7231" x="11" y="174.956"/><text fill="#000000" font-family="sans-serif" font-size="13" lengthAdjust="spacing" textLength="121.3421" x="21" y="198.8531">Load single channel</text><text fill="#000000" font-family="sans-serif" font-size="13" lengthAdjust="spacing" textLength="125.7231" x="21" y="216.5591">(or band expression)</text><rect fill="#F8F8F8" height="37.706" rx="12.5" ry="12.5" style="stroke:#444444;stroke-width:0.5;" width="147.8421" x="240.2837" y="174.956"/><text fill="#000000" font-family="sans-serif" font-size="13" lengthAdjust="spacing" textLength="127.8421" x="250.2837" y="198.8531">Load ABI channel set</text><rect fill="#F8F8F8" height="55.412" rx="12.5" ry="12.5" style="stroke:#444444;stroke-width:0.5;" width="163.5982" x="232.4057" y="247.6621"/><text fill="#000000" font-family="sans-serif" font-size="13" lengthAdjust="spacing" textLength="87.0351" x="242.4057" y="271.5591">Compose RGB</text><text fill="#000000" font-family="sans-serif" font-size="13" font-style="italic" lengthAdjust="spacing" textLength="143.5982" x="242.4057" y="289.2651">truecolor &#183; night &#183; ash &#183; &#8230;</text><polygon fill="#F8F8F8" points="203.5019,313.0741,203.5019,313.0741,215.5019,325.0741,203.5019,337.0741,203.5019,337.0741,191.5019,325.0741,203.5019,313.0741" style="stroke:#444444;stroke-width:0.5;"/><rect fill="#EAEAEA" height="55.412" rx="12.5" ry="12.5" style="stroke:#444444;stroke-width:0.5;" width="210.2032" x="98.4003" y="357.0741"/><text fill="#000000" font-family="sans-serif" font-size="13" lengthAdjust="spacing" textLength="190.2032" x="108.4003" y="380.9711">Apply Rayleigh correction (LUT)</text><text fill="#000000" font-family="sans-serif" font-size="13" font-style="italic" lengthAdjust="spacing" textLength="122.3561" x="108.4003" y="398.6771">optional &#8212; --rayleigh</text><rect fill="#EAEAEA" height="55.412" rx="12.5" ry="12.5" style="stroke:#444444;stroke-width:0.5;" width="177.3652" x="114.8193" y="432.4861"/><text fill="#000000" font-family="sans-serif" font-size="13" lengthAdjust="spacing" textLength="157.3652" x="124.8193" y="456.3831">Enhance contrast (CLAHE)</text><text fill="#000000" font-family="sans-serif" font-size="13" font-style="italic" lengthAdjust="spacing" textLength="106.1191" x="124.8193" y="474.0892">optional &#8212; --clahe</text><rect fill="#F8F8F8" height="37.706" rx="12.5" ry="12.5" style="stroke:#444444;stroke-width:0.5;" width="129.6941" x="138.6549" y="507.8982"/><text fill="#000000" font-family="sans-serif" font-size="13" lengthAdjust="spacing" textLength="109.6941" x="148.6549" y="531.7952">Normalize to 8-bit</text><rect fill="#EAEAEA" height="55.412" rx="12.5" ry="12.5" style="stroke:#444444;stroke-width:0.5;" width="245.4968" x="80.7535" y="565.6042"/><text fill="#000000" font-family="sans-serif" font-size="13" lengthAdjust="spacing" textLength="225.4968" x="90.7535" y="589.5012">Fixed grid &#8594; Lat/Lon equirectangular</text><text fill="#000000" font-family="sans-serif" font-size="13" font-style="italic" lengthAdjust="spacing" textLength="80.2231" x="90.7535" y="607.2072">optional &#8212; -G</text><rect fill="#F8F8F8" height="37.706" rx="12.5" ry="12.5" style="stroke:#444444;stroke-width:0.5;" width="153.2111" x="126.8964" y="641.0162"/><text fill="#000000" font-family="sans-serif" font-size="13" lengthAdjust="spacing" textLength="133.2111" x="136.8964" y="664.9132">Write PNG or GeoTIFF</text><rect fill="#EAEAEA" height="55.412" rx="12.5" ry="12.5" style="stroke:#444444;stroke-width:0.5;" width="149.0641" x="128.9699" y="698.7222"/><text fill="#000000" font-family="sans-serif" font-size="13" lengthAdjust="spacing" textLength="129.0641" x="138.9699" y="722.6192">Write metadata JSON</text><text fill="#000000" font-family="sans-serif" font-size="13" font-style="italic" lengthAdjust="spacing" textLength="74.7631" x="138.9699" y="740.3252">optional &#8212; -j</text><ellipse cx="203.5019" cy="785.1343" fill="#FFFFFF" fill-opacity="0.00000" rx="11" ry="11" style="stroke:#222222;stroke-width:1;"/><ellipse cx="203.5019" cy="785.1343" fill="#222222" rx="6" ry="6" style="stroke:#222222;stroke-width:1;"/><line style="stroke:#444444;stroke-width:1;" x1="203.5019" x2="203.5019" y1="30" y2="50"/><polygon fill="#444444" points="199.5019,40,203.5019,50,207.5019,40,203.5019,44" style="stroke:#444444;stroke-width:1;"/><line style="stroke:#444444;stroke-width:1;" x1="314.2048" x2="314.2048" y1="212.6621" y2="247.6621"/><polygon fill="#444444" points="310.2048,237.6621,314.2048,247.6621,318.2048,237.6621,314.2048,241.6621" style="stroke:#444444;stroke-width:1;"/><line style="stroke:#444444;stroke-width:1;" x1="159.6454" x2="83.8616" y1="119.706" y2="119.706"/><line style="stroke:#444444;stroke-width:1;" x1="83.8616" x2="83.8616" y1="119.706" y2="174.956"/><polygon fill="#444444" points="79.8616,164.956,83.8616,174.956,87.8616,164.956,83.8616,168.956" style="stroke:#444444;stroke-width:1;"/><text fill="#000000" font-family="sans-serif" font-size="13" lengthAdjust="spacing" textLength="115.0241" x="90.6216" y="153.456">gray / pseudocolor</text><line style="stroke:#444444;stroke-width:1;" x1="247.3584" x2="314.2048" y1="119.706" y2="119.706"/><line style="stroke:#444444;stroke-width:1;" x1="314.2048" x2="314.2048" y1="119.706" y2="174.956"/><polygon fill="#444444" points="310.2048,164.956,314.2048,174.956,318.2048,164.956,314.2048,168.956" style="stroke:#444444;stroke-width:1;"/><text fill="#000000" font-family="sans-serif" font-size="13" lengthAdjust="spacing" textLength="21.359" x="320.9648" y="153.456">rgb</text><line style="stroke:#444444;stroke-width:1;" x1="83.8616" x2="83.8616" y1="230.3681" y2="325.0741"/><line style="stroke:#444444;stroke-width:1;" x1="83.8616" x2="191.5019" y1="325.0741" y2="325.0741"/><polygon fill="#444444" points="181.5019,321.0741,191.5019,325.0741,181.5019,329.0741,185.5019,325.0741" style="stroke:#444444;stroke-width:1;"/><line style="stroke:#444444;stroke-width:1;" x1="314.2048" x2="314.2048" y1="303.0741" y2="325.0741"/><line style="stroke:#444444;stroke-width:1;" x1="314.2048" x2="215.5019" y1="325.0741" y2="325.0741"/><polygon fill="#444444" points="225.5019,321.0741,215.5019,325.0741,225.5019,329.0741,221.5019,325.0741" style="stroke:#444444;stroke-width:1;"/><line style="stroke:#444444;stroke-width:1;" x1="203.5019" x2="203.5019" y1="87.706" y2="107.706"/><polygon fill="#444444" points="199.5019,97.706,203.5019,107.706,207.5019,97.706,203.5019,101.706" style="stroke:#444444;stroke-width:1;"/><line style="stroke:#444444;stroke-width:1;" x1="203.5019" x2="203.5019" y1="337.0741" y2="357.0741"/><polygon fill="#444444" points="199.5019,347.0741,203.5019,357.0741,207.5019,347.0741,203.5019,351.0741" style="stroke:#444444;stroke-width:1;"/><line style="stroke:#444444;stroke-width:1;" x1="203.5019" x2="203.5019" y1="412.4861" y2="432.4861"/><polygon fill="#444444" points="199.5019,422.4861,203.5019,432.4861,207.5019,422.4861,203.5019,426.4861" style="stroke:#444444;stroke-width:1;"/><line style="stroke:#444444;stroke-width:1;" x1="203.5019" x2="203.5019" y1="487.8982" y2="507.8982"/><polygon fill="#444444" points="199.5019,497.8982,203.5019,507.8982,207.5019,497.8982,203.5019,501.8982" style="stroke:#444444;stroke-width:1;"/><line style="stroke:#444444;stroke-width:1;" x1="203.5019" x2="203.5019" y1="545.6042" y2="565.6042"/><polygon fill="#444444" points="199.5019,555.6042,203.5019,565.6042,207.5019,555.6042,203.5019,559.6042" style="stroke:#444444;stroke-width:1;"/><line style="stroke:#444444;stroke-width:1;" x1="203.5019" x2="203.5019" y1="621.0162" y2="641.0162"/><polygon fill="#444444" points="199.5019,631.0162,203.5019,641.0162,207.5019,631.0162,203.5019,635.0162" style="stroke:#444444;stroke-width:1;"/><line style="stroke:#444444;stroke-width:1;" x1="203.5019" x2="203.5019" y1="678.7222" y2="698.7222"/><polygon fill="#444444" points="199.5019,688.7222,203.5019,698.7222,207.5019,688.7222,203.5019,692.7222" style="stroke:#444444;stroke-width:1;"/><line style="stroke:#444444;stroke-width:1;" x1="203.5019" x2="203.5019" y1="754.1343" y2="774.1343"/><polygon fill="#444444" points="199.5019,764.1343,203.5019,774.1343,207.5019,764.1343,203.5019,768.1343" style="stroke:#444444;stroke-width:1;"/><!--SRC=[VLEnJXj14EtlAqPGO4i1YuI2s9KnFeV88WY8ae9cl3k-sx2tk-pk6PmgLJuWoW-aIKUL8dty9tn9Pky0MG55L-pftfitxzxCRi4K0r14nuTrGbc3cW8iq82mbGKKKIsKHCaVWwrcdb0oLLW3eOOP6aaUGHACfaSliYqmjgtppBKX0PA42chro_H1r1Zz8tQluMeJRIBEwuO65ABooD90cXMbmi9ZXO1G6mJdhRDUDCpT_ikTrt1LKzCMPwjR138jRVMZK7nsfdXE7m4NAh0aostascA4Q2rez0MtjHuS5hJHtO6nXd2jeYWXh6uXKF8Oo2-mpwvWfkQr5zZsvY3qJXOkbN78zk2GvbZhc5iJpzHdWjrNQ-2mIJ4kJr1APGhONyUyjzSZgzd6vjxUtZDL1zPpol-deBWilAsDlAVb- -bPO_xBk2vLf2mB4NtCilunnT5X3cX4oU1SQHems6RH6TcguabtCu6SIGU01xA47hX0jRIYqODk1j2VMfGG-1SrPrUYCQGlJ8VXj2b0DyvJ2BnatS6ZbYzcwyN3WwE7IXv072I0-plBxDF9mONfzQAlgMtwvpSOLPGnlM0eqt7tvMUlDyZ8oDPzbcsEX-df3vtJIpZ5fIQkuT5wJnmVRs5d-lwycvIjYyqDO9NliBtjxxb9y45bRDYSQ3OZUWoHqvaEtuoVAnSQIqgr7A_r5Ugq5xph-zipnJ_sA9ch6vASgP9mz_KRtyZOcx8hkgfLSeYcg7bLdpQOjDeVF4yIJeudm8bCo9uVvVcQUWjNVCSbHeItP- -EdqfzQgH2jEul]--></g></svg>